<svg xmlns="http://www.w3.org/2000/svg" xmlns:xlink="http://www.w3.org/1999/xlink" viewBox="0 0 1080 1080" width="528" height="528" preserveAspectRatio="xMidYMid meet" style="width: 100%; height: 100%; transform: translate3d(0px, 0px, 0px); content-visibility: visible; background-color: transparent;"><defs><clipPath id="__lottie_element_131"><rect width="1080" height="1080" x="0" y="0"/></clipPath></defs><g clip-path="url(#__lottie_element_131)"><g transform="matrix(1,0,0,1,540,540)" opacity="1" style="display: block;"><g opacity="1" transform="matrix(1,0,0,1,0,0)"><path fill="rgb(255,255,255)" fill-opacity="1" d=" M540,540 C540,540 -540,540 -540,540 C-540,540 -540,-540 -540,-540 C-540,-540 540,-540 540,-540 C540,-540 540,540 540,540z"/></g></g><g transform="matrix(1.0040432214736938,0,0,1.0040432214736938,2230.808837890625,57.67716979980469)" opacity="1" style="display: block;"><g opacity="1" transform="matrix(1,0,0,1,-1684,574.5)"><path fill="rgb(231,61,23)" fill-opacity="1" d=" M372.93798828125,232.875 C372.93798828125,232.875 -372.93798828125,232.875 -372.93798828125,232.875 C-372.93798828125,232.875 -372.93798828125,-232.875 -372.93798828125,-232.875 C-372.93798828125,-232.875 372.93798828125,-232.875 372.93798828125,-232.875 C372.93798828125,-232.875 372.93798828125,232.875 372.93798828125,232.875z"/></g><g opacity="1" transform="matrix(1.0299999713897705,0,0,1,50.5198974609375,10.79400634765625)"><g opacity="1" transform="matrix(1,0,0,1,-1684,574.5)"><path fill="rgb(93,14,6)" fill-opacity="1" d=" M339.18798828125,199.125 C339.18798828125,199.125 -339.18798828125,199.125 -339.18798828125,199.125 C-339.18798828125,199.125 -339.18798828125,-199.125 -339.18798828125,-199.125 C-339.18798828125,-199.125 339.18798828125,-199.125 339.18798828125,-199.125 C339.18798828125,-199.125 339.18798828125,199.125 339.18798828125,199.125z"/></g></g><g opacity="1" transform="matrix(1,0,0,1,0,0)"><g opacity="1" transform="matrix(1,0,0,1,-1684,574.5)"><path fill="rgb(255,255,255)" fill-opacity="1" d=" M339.18798828125,199.125 C339.18798828125,199.125 -339.18798828125,199.125 -339.18798828125,199.125 C-339.18798828125,199.125 -339.18798828125,-199.125 -339.18798828125,-199.125 C-339.18798828125,-199.125 339.18798828125,-199.125 339.18798828125,-199.125 C339.18798828125,-199.125 339.18798828125,199.125 339.18798828125,199.125z"/></g></g><g opacity="1" transform="matrix(1,0,0,1,-1684,574.5)"><path stroke-linecap="butt" stroke-linejoin="miter" fill-opacity="0" stroke-miterlimit="10" stroke="rgb(59,38,68)" stroke-opacity="1" stroke-width="6" d=" M0,-178.875 C0,-178.875 0,178.875 0,178.875"/></g></g><g style="display: none;"><g><path/></g></g><g transform="matrix(1,0,0,1,370.406005859375,511.875)" opacity="1" style="display: none;"><g opacity="1" transform="matrix(1,0,0,1,0,0)"><path stroke-linecap="butt" stroke-linejoin="miter" fill-opacity="0" stroke-miterlimit="10" stroke="rgb(59,38,68)" stroke-opacity="1" stroke-width="6" d="M0 0"/></g></g><g transform="matrix(1,0,0,1,370.406005859375,572.625)" opacity="1" style="display: none;"><g opacity="1" transform="matrix(1,0,0,1,0,0)"><path stroke-linecap="butt" stroke-linejoin="miter" fill-opacity="0" stroke-miterlimit="10" stroke="rgb(59,38,68)" stroke-opacity="1" stroke-width="6" d="M0 0"/></g></g><g transform="matrix(1,0,0,1,370.406005859375,633.375)" opacity="1" style="display: none;"><g opacity="1" transform="matrix(1,0,0,1,0,0)"><path stroke-linecap="butt" stroke-linejoin="miter" fill-opacity="0" stroke-miterlimit="10" stroke="rgb(59,38,68)" stroke-opacity="1" stroke-width="6" d="M0 0"/></g></g><g transform="matrix(1,0,0,1,532.5,531)" opacity="1" style="display: none;"><g opacity="1" transform="matrix(1,0,0,1,-10,21)"><path fill="rgb(255,255,255)" fill-opacity="1" d=" M357.625,-116.5 C357.625,-116.5 17.75,-116.5 17.75,-116.5 C17.75,-116.5 16.75,281.9530029296875 16.75,281.9530029296875 C16.75,281.9530029296875 357.4100036621094,282.5 357.4100036621094,282.5 C357.4100036621094,282.5 357.625,-116.5 357.625,-116.5z"/></g></g><g transform="matrix(1.0040432214736938,0,0,1.0040432214736938,2230.808837890625,57.67716979980469)" opacity="1" style="display: block;"><g opacity="1" transform="matrix(1,0,0,1,-1684,574.5)"><path stroke-linecap="butt" stroke-linejoin="miter" fill-opacity="0" stroke-miterlimit="10" stroke="rgb(59,38,68)" stroke-opacity="1" stroke-width="6" d=" M0,-178.875 C0,-178.875 0,178.875 0,178.875"/></g></g><g transform="matrix(1,0,0,1,540,540)" opacity="1" style="display: block;"><g opacity="1" transform="matrix(1,0,0,1,0,0)"><path stroke-linecap="butt" stroke-linejoin="miter" fill-opacity="0" stroke-miterlimit="4" stroke="rgb(248,231,28)" stroke-opacity="1" stroke-width="454" d="M0 0"/><path stroke-linecap="butt" stroke-linejoin="miter" fill-opacity="0" stroke-miterlimit="4" stroke="rgb(245,166,35)" stroke-opacity="1" stroke-width="342" d="M0 0"/></g></g><g transform="matrix(0.9287546277046204,0.3380390405654907,-0.3380390405654907,0.9287546277046204,3703.4970703125,924.2272338867188)" opacity="1" style="display: block;"><g opacity="1" transform="matrix(1,0,0,1,-1966.093994140625,65.72699737548828)"><path fill="rgb(255,146,0)" fill-opacity="1" d=" M51.77899932861328,229.79600524902344 C51.77899932861328,229.79600524902344 -51.77899932861328,229.79600524902344 -51.77899932861328,229.79600524902344 C-51.77899932861328,229.79600524902344 -51.77899932861328,-178.01699829101562 -51.77899932861328,-178.01699829101562 C-51.77899932861328,-206.61399841308594 -28.597000122070312,-229.79600524902344 0,-229.79600524902344 C0,-229.79600524902344 0,-229.79600524902344 0,-229.79600524902344 C28.597000122070312,-229.79600524902344 51.77899932861328,-206.61399841308594 51.77899932861328,-178.01699829101562 C51.77899932861328,-178.01699829101562 51.77899932861328,229.79600524902344 51.77899932861328,229.79600524902344z"/></g><g opacity="1" transform="matrix(1,0,0,1,-1955.968994140625,82.60199737548828)"><path fill="rgb(255,183,0)" fill-opacity="1" d=" M19.30699920654297,212.92100524902344 C19.30699920654297,212.92100524902344 0,212.92100524902344 0,212.92100524902344 C0,212.92100524902344 -19.30699920654297,212.92100524902344 -19.30699920654297,212.92100524902344 C-19.30699920654297,212.92100524902344 -19.30699920654297,-193.61399841308594 -19.30699920654297,-193.61399841308594 C-19.30699920654297,-204.27699279785156 -10.663000106811523,-212.92100524902344 0,-212.92100524902344 C0,-212.92100524902344 0,-212.92100524902344 0,-212.92100524902344 C10.663000106811523,-212.92100524902344 19.30699920654297,-204.27699279785156 19.30699920654297,-193.61399841308594 C19.30699920654297,-193.61399841308594 19.30699920654297,212.92100524902344 19.30699920654297,212.92100524902344z"/></g><g opacity="1" transform="matrix(1,0,0,1,-1966.093994140625,349.5220031738281)"><path fill="rgb(255,202,131)" fill-opacity="1" d=" M-51.77899932861328,-54 C-51.77899932861328,-54 0,54 0,54 C0,54 51.77899932861328,-54 51.77899932861328,-54 C51.77899932861328,-54 -51.77899932861328,-54 -51.77899932861328,-54z"/></g><g opacity="1" transform="matrix(1,0,0,1,-1955.968994140625,349.5220031738281)"><path fill="rgb(255,249,133)" fill-opacity="1" d=" M-19.30699920654297,-54 C-19.30699920654297,-54 -10.125,54 -10.125,54 C-10.125,54 19.30699920654297,-54 19.30699920654297,-54 C19.30699920654297,-54 -19.30699920654297,-54 -19.30699920654297,-54z"/></g><g opacity="1" transform="matrix(1,0,0,1,-1966.093994140625,379.8970031738281)"><path fill="rgb(59,38,68)" fill-opacity="1" d=" M-22.65399932861328,-23.625 C-22.65399932861328,-23.625 0,23.625 0,23.625 C0,23.625 22.65399932861328,-23.625 22.65399932861328,-23.625 C22.65399932861328,-23.625 -22.65399932861328,-23.625 -22.65399932861328,-23.625z"/></g><g opacity="1" transform="matrix(1,0,0,1,-1961.6639404296875,379.8970031738281)"><path fill="rgb(145,100,160)" fill-opacity="1" d=" M-8.446999549865723,-23.625 C-8.446999549865723,-23.625 -4.429999828338623,23.625 -4.429999828338623,23.625 C-4.429999828338623,23.625 8.446999549865723,-23.625 8.446999549865723,-23.625 C8.446999549865723,-23.625 -8.446999549865723,-23.625 -8.446999549865723,-23.625z"/></g></g><g transform="matrix(0,0,0,0,733.5,259.875)" opacity="1" style="display: block;"><g opacity="1" transform="matrix(1,0,0,1,0,0)"><path fill="rgb(59,38,68)" fill-opacity="1" d=" M21.937999725341797,21.937999725341797 C21.937999725341797,21.937999725341797 -21.937999725341797,21.937999725341797 -21.937999725341797,21.937999725341797 C-21.937999725341797,21.937999725341797 -21.937999725341797,-21.937999725341797 -21.937999725341797,-21.937999725341797 C-21.937999725341797,-21.937999725341797 21.937999725341797,-21.937999725341797 21.937999725341797,-21.937999725341797 C21.937999725341797,-21.937999725341797 21.937999725341797,21.937999725341797 21.937999725341797,21.937999725341797z"/></g></g><g transform="matrix(0,0,0,0,812.25,259.875)" opacity="1" style="display: block;"><g opacity="1" transform="matrix(1,0,0,1,0,0)"><path fill="rgb(59,38,68)" fill-opacity="1" d=" M21.937999725341797,21.937999725341797 C21.937999725341797,21.937999725341797 -21.937999725341797,21.937999725341797 -21.937999725341797,21.937999725341797 C-21.937999725341797,21.937999725341797 -21.937999725341797,-21.937999725341797 -21.937999725341797,-21.937999725341797 C-21.937999725341797,-21.937999725341797 21.937999725341797,-21.937999725341797 21.937999725341797,-21.937999725341797 C21.937999725341797,-21.937999725341797 21.937999725341797,21.937999725341797 21.937999725341797,21.937999725341797z"/></g></g><g transform="matrix(0,0,0,0,891,259.875)" opacity="1" style="display: block;"><g opacity="1" transform="matrix(1,0,0,1,0,0)"><path fill="rgb(59,38,68)" fill-opacity="1" d=" M21.937999725341797,21.937999725341797 C21.937999725341797,21.937999725341797 -21.937999725341797,21.937999725341797 -21.937999725341797,21.937999725341797 C-21.937999725341797,21.937999725341797 -21.937999725341797,-21.937999725341797 -21.937999725341797,-21.937999725341797 C-21.937999725341797,-21.937999725341797 21.937999725341797,-21.937999725341797 21.937999725341797,-21.937999725341797 C21.937999725341797,-21.937999725341797 21.937999725341797,21.937999725341797 21.937999725341797,21.937999725341797z"/></g></g></g></svg>